<?xml version="1.0" encoding="UTF-8" standalone="no"?>
<svg
   viewBox="0 0 48 48"
   width="48px"
   height="48px"
   version="1.1"
   id="svg5"
   sodipodi:docname="github-logo.svg"
   inkscape:version="1.4.2 (f4327f4, 2025-05-13)"
   xmlns:inkscape="http://www.inkscape.org/namespaces/inkscape"
   xmlns:sodipodi="http://sodipodi.sourceforge.net/DTD/sodipodi-0.dtd"
   xmlns="http://www.w3.org/2000/svg"
   xmlns:svg="http://www.w3.org/2000/svg">
  <defs
     id="defs5" />
  <sodipodi:namedview
     id="namedview5"
     pagecolor="#ffffff"
     bordercolor="#000000"
     borderopacity="0.25"
     inkscape:showpageshadow="2"
     inkscape:pageopacity="0.0"
     inkscape:pagecheckerboard="0"
     inkscape:deskcolor="#d1d1d1"
     inkscape:zoom="5.6568543"
     inkscape:cx="64.523494"
     inkscape:cy="10.16466"
     inkscape:window-width="1920"
     inkscape:window-height="1009"
     inkscape:window-x="-8"
     inkscape:window-y="-8"
     inkscape:window-maximized="1"
     inkscape:current-layer="g19" />
  <linearGradient
     id="rL2wppHyxHVbobwndsT6Ca"
     x1="4"
     x2="44"
     y1="23.508"
     y2="23.508"
     gradientUnits="userSpaceOnUse">
    <stop
       offset="0"
       stop-color="#4c4c4c"
       id="stop1"
       style="stop-color:#00deff;stop-opacity:1;" />
    <stop
       offset="1"
       stop-color="#343434"
       id="stop2" />
  </linearGradient>
  <g
     id="g19"
     transform="translate(0,0.5)">
    <path
       style="fill:#00deff;fill-opacity:1;stroke-width:1.18439"
       d="m 15.605197,38.571192 c -0.223558,0.01676 -0.397806,0.135538 -0.407133,0.286844 -0.01066,0.17292 0.198423,0.324651 0.467278,0.340048 0.268856,0.0154 0.495943,-0.110425 0.506603,-0.28453 0.01066,-0.172921 -0.200735,-0.326965 -0.469591,-0.342362 -0.03361,-0.0019 -0.06522,-0.0024 -0.09716,0 z"
       id="path19" />
    <path
       style="fill:#00deff;fill-opacity:1;stroke-width:1.18439"
       d="m 17.511319,38.349119 c -0.286622,0 -0.520482,0.149529 -0.520482,0.333109 0,0.18358 0.23386,0.333108 0.520482,0.333108 0.285437,0 0.518169,-0.149528 0.518169,-0.333108 0,-0.18358 -0.231547,-0.333109 -0.518169,-0.333109 z"
       id="path18" />
    <path
       style="fill:#00deff;fill-opacity:1;stroke-width:1.18439"
       d="m 13.692135,38.319049 c -0.210879,0.002 -0.382576,0.10219 -0.400193,0.245205 -0.02132,0.163446 0.166425,0.320821 0.418699,0.351615 0.252275,0.03079 0.472589,-0.076 0.492724,-0.238265 0.02132,-0.163446 -0.166425,-0.320821 -0.4187,-0.351615 -0.03139,-0.0038 -0.0624,-0.0072 -0.09253,-0.0069 z"
       id="path17" />
    <path
       style="fill:#00deff;fill-opacity:1;stroke-width:1.18439"
       d="m 11.971073,37.271144 c -0.09371,0.0025 -0.171957,0.03777 -0.21282,0.104097 -0.08172,0.132652 0.01836,0.340604 0.222073,0.464964 0.203714,0.124361 0.434133,0.118772 0.515856,-0.01388 0.08172,-0.132652 -0.01605,-0.342917 -0.219759,-0.467278 -0.101858,-0.06218 -0.211635,-0.09042 -0.30535,-0.0879 z"
       id="path16" />
    <path
       style="fill:#00deff;fill-opacity:1;stroke-width:1.18439"
       d="m 10.842205,36.010421 c -0.03825,0.0017 -0.0739,0.01338 -0.104097,0.0347 -0.120807,0.08528 -0.112961,0.304516 0.01851,0.488096 0.131467,0.18358 0.337217,0.263397 0.458025,0.178121 0.120807,-0.08528 0.111776,-0.304516 -0.01851,-0.488098 -0.0986,-0.137685 -0.239172,-0.217871 -0.353928,-0.212819 z"
       id="path15" />
    <path
       style="fill:#00deff;fill-opacity:1;stroke-width:1.18439"
       d="m 9.8937706,34.6456 c -0.058648,0.0018 -0.1097595,0.02106 -0.1457352,0.06014 -0.095935,0.104227 -0.045358,0.30659 0.1133494,0.451086 0.1587082,0.144495 0.3644022,0.17825 0.4603382,0.07402 0.09593,-0.104226 0.04536,-0.306591 -0.11335,-0.451086 -0.09919,-0.0903 -0.2168561,-0.13719 -0.3146024,-0.13416 z"
       id="path14" />
    <path
       style="fill:#00deff;fill-opacity:1;stroke-width:1.18439"
       d="m 8.8736253,33.838274 c -0.094181,0.0027 -0.1712375,0.0401 -0.2058796,0.108724 -0.061589,0.121991 0.03505,0.295059 0.2174451,0.388625 0.1823955,0.09357 0.3825569,0.0711 0.444145,-0.05089 0.061588,-0.121992 -0.037364,-0.295061 -0.2197594,-0.388627 -0.079798,-0.04094 -0.1626992,-0.05994 -0.2359511,-0.05783 z"
       id="path13" />
    <path
       style="fill:#00deff;fill-opacity:1;stroke-width:1.18439"
       d="m 15.427066,46.075371 c -0.0037,-5.2e-5 -0.0055,5.8e-5 -0.0093,0 l 0.0694,0.02313 c -0.0201,-0.0077 -0.04007,-0.01534 -0.06014,-0.02313 z"
       id="path12" />
    <path
       style="fill:#00deff;fill-opacity:1;stroke-width:1.18439"
       d="m 20.546302,47.417019 c -0.02946,-0.0043 -0.06079,-0.0025 -0.09022,-0.0069 0.55053,0.08441 1.105396,0.155941 1.667858,0.201253 -0.532433,-0.04351 -1.05613,-0.115354 -1.577641,-0.194314 z"
       id="path10" />
    <path
       style="fill:#00deff;fill-opacity:1;stroke-width:1.18439"
       d="m 27.532335,47.412419 c -0.02718,0.004 -0.05607,0.003 -0.08328,0.0069 -0.520423,0.07862 -1.044123,0.148631 -1.575327,0.192 0.559262,-0.04498 1.111176,-0.11534 1.658605,-0.19894 z"
       id="path8" />
    <path
       style="fill:#00deff;fill-opacity:1;stroke-width:1.18439"
       d="m 31.309881,46.521855 h 0.0093 c 0.0136,-0.0044 0.02574,-0.01175 0.03932,-0.01619 -0.0161,0.0053 -0.03247,0.01096 -0.04858,0.01619 z"
       id="path6" />
    <path
       style="fill:#00deff;fill-opacity:1;stroke-width:1.18439"
       d="m 31.270561,46.521855 c -0.01459,0.0047 -0.02936,0.0092 -0.04395,0.01388 0.02068,-0.0019 0.0417,-0.0039 0.06246,-0.0069 0.007,-0.0023 0.01378,-0.0047 0.02082,-0.0069 z"
       id="path5" />
    <path
       style="fill:#00deff;fill-opacity:1;stroke-width:1.18439"
       d="m 31.538898,46.431635 c -0.05511,0.01852 -0.104323,0.04895 -0.159614,0.06708 0,0 0.439654,-0.156216 0.559808,-0.203567 -0.132437,0.04722 -0.266742,0.09144 -0.400194,0.136482 z"
       id="path4" />
    <path
       style="fill:#00deff;fill-opacity:1;stroke-width:1.18439"
       d="m 31.934465,46.267393 c -0.509305,0.02386 -1.420339,-0.182444 -1.420339,-0.946121 v -6.874993 c 0,-1.295719 -0.387942,-2.546173 -1.108049,-3.613306 7.005647,-1.133458 10.277793,-4.848286 10.277793,-11.621793 0,-2.649473 -0.812564,-4.967632 -2.415039,-6.895813 0.162261,-0.432301 0.27722,-0.88768 0.342363,-1.357882 0.207266,-1.511277 -0.01847,-2.470371 -0.217447,-3.317207 l -0.03238,-0.138795 C 37.150541,10.600165 36.902431,9.9660916 36.891771,9.9400351 L 36.759916,9.6069264 36.401361,9.5676012 c 0,0 -0.211081,-0.020819 -0.532049,-0.020819 -0.451252,0 -1.119005,0.043638 -1.737254,0.2544583 l -0.231326,0.076337 c -0.845652,0.2854375 -1.646613,0.5559405 -2.750461,1.2144585 -0.393216,0.23451 -0.829792,0.509713 -1.302362,0.821206 C 28.032244,11.438303 26.066755,11.196133 24,11.196133 c -2.086889,0 -4.067795,0.244372 -5.896488,0.724049 C 17.626204,11.606319 17.185169,11.328914 16.789583,11.092036 15.685735,10.433517 14.887089,10.16183 14.041437,9.8775777 L 13.807798,9.8012404 C 13.190732,9.591604 12.524109,9.5467821 12.072857,9.5467821 c -0.32097,0 -0.532049,0.020819 -0.532049,0.020819 l -0.358555,0.039325 -0.134169,0.3354218 c -0.01066,0.026057 -0.258769,0.6601301 -0.46959,1.5614481 l -0.03239,0.136482 c -0.200161,0.846836 -0.425898,1.80593 -0.217446,3.317207 0.06633,0.482046 0.185745,0.94849 0.353928,1.390266 -1.5716812,1.918708 -2.3687734,4.224615 -2.3687734,6.863429 0,6.754556 3.2754774,10.468368 10.2870454,11.614854 -0.467832,0.698788 -0.794131,1.485092 -0.962314,2.324822 -0.390847,0.15397 -0.744535,0.25566 -1.054844,0.303036 -0.311494,0.04737 -0.636552,0.07171 -0.964627,0.07171 -0.817227,0 -1.601828,-0.15175 -2.000966,-0.388627 -0.52113,-0.309125 -1.252212,-1.083733 -1.862171,-1.973207 -0.414535,-0.604037 -1.24131,-1.67698 -2.1189408,-2.077303 -0.7520855,-0.343472 -1.5365202,-0.541301 -2.1559544,-0.541301 -0.130282,0 -0.2473883,0.0089 -0.3516143,0.02545 -0.4334855,0.06869 -0.7913183,0.297522 -0.9808202,0.631519 -0.1516015,0.265302 -0.1783057,0.573225 -0.071711,0.839712 0.2120052,0.530605 0.9974201,1.006673 1.3254951,1.1867 0.3967694,0.217927 1.0883399,0.880239 1.4851094,1.519808 0.2972811,0.478492 0.4387975,0.824814 0.6176399,1.263037 0.1006728,0.247537 0.2116345,0.518632 0.3608672,0.844339 0.3920321,0.851574 1.6016421,1.743102 2.2554241,2.135134 0.893027,0.535342 2.551021,0.683779 3.46063,0.724048 l 0.131855,0.0046 c 0.354131,0 0.946492,-0.05533 1.76964,-0.161928 v 3.763665 c 0,0.916744 -1.155594,0.9595 -1.452724,0.960001 l 0.0347,0.01157 c 0.221697,0.07926 0.443944,0.155911 0.66853,0.229012 h 0.337736 c 0.553778,-0.09552 1.008579,-0.58788 1.008579,-1.20058 v -4.44145 c -0.9179,0.130283 -2.005203,0.264211 -2.46593,0.242892 -1.333619,-0.0604 -2.568286,-0.272371 -3.185352,-0.643085 C 11.710176,40.048512 10.702226,39.24783 10.407314,38.605892 9.9880407,37.693915 9.8914942,37.232023 9.3964206,36.433746 8.9522756,35.718377 8.185441,34.979283 7.6915518,34.708058 7.1976622,34.436834 6.7303847,34.066121 6.6320806,33.819768 c -0.098304,-0.247536 0.1231762,-0.591601 0.5921933,-0.666217 0.4678322,-0.07343 1.3064158,0.07288 2.1698336,0.467277 0.6537815,0.298466 1.3762385,1.146467 1.8760495,1.87605 0.592193,0.864602 1.381606,1.7523 2.047231,2.1467 0.665625,0.394401 2.046657,0.59336 3.35422,0.395568 0.508102,-0.0758 1.036005,-0.265933 1.494363,-0.467279 0.18358,-1.22584 0.73158,-2.3278 1.545254,-3.187665 -6.974853,-0.853943 -10.8029019,-4.08915 -10.8029019,-11.175336 0,-2.732379 0.9097569,-4.986415 2.4613049,-6.754704 -0.176475,-0.387295 -0.362201,-0.912015 -0.453399,-1.57764 -0.203714,-1.480483 0.03686,-2.369218 0.240579,-3.238557 0.203714,-0.86934 0.444145,-1.480484 0.444145,-1.480484 0,0 1.092152,-0.11148 2.017158,0.203567 0.925006,0.315047 1.720766,0.555329 2.868436,1.239905 0.540081,0.322153 1.084122,0.674563 1.51287,0.960001 C 19.839953,12.050483 21.86692,11.788326 24,11.788326 c 2.11413,0 4.124497,0.261084 5.952006,0.768001 0.427563,-0.284252 0.967088,-0.63559 1.503615,-0.955374 1.147671,-0.684576 1.943431,-0.924858 2.868437,-1.239905 0.925006,-0.315047 2.017158,-0.203567 2.017158,-0.203567 0,0 0.240431,0.611144 0.444145,1.480484 0.203715,0.869339 0.444293,1.758074 0.240579,3.238557 -0.08883,0.649044 -0.267783,1.164955 -0.439519,1.549881 1.581156,1.778949 2.507569,4.048843 2.507569,6.784777 0,7.190411 -3.874351,10.348522 -10.798275,11.179963 1.001991,1.060024 1.626218,2.481086 1.626218,4.055136 v 6.874993 c 0,0.608944 0.448474,1.100185 0.997013,1.20058 h 0.351615 c 0.0898,-0.02917 0.178987,-0.06006 0.268337,-0.09022 0.136339,-0.04583 0.260347,-0.116017 0.395567,-0.164242 z"
       id="path3" />
    <path
       style="fill:#00deff;fill-opacity:1;stroke-width:1.18439"
       d="m 32.640008,45.975924 c -0.237337,0.09345 -0.464539,0.20552 -0.705543,0.291469 0.02829,-0.0013 0.06235,3.95e-4 0.0879,-0.0023 l 0.749494,-0.279903 c -0.04527,-0.0015 -0.08693,-0.0071 -0.131855,-0.0093 z"
       id="path1" />
    <path
       style="fill:#00deff;fill-opacity:1;stroke-width:1.18439"
       d="M 24,0.31226766 C 10.917265,0.31226766 0.31226766,10.917265 0.31226766,24 c 0,10.057039 6.27157814,18.639747 15.11480934,22.075394 0.838891,0.01159 1.473588,-0.130361 1.47123,-0.754122 v -3.095135 c -0.514024,0.05685 -0.907074,0.08328 -1.191326,0.08328 l -0.145736,-0.0046 C 14.381596,42.25149 12.777641,42.06952 11.823025,41.497462 11.626417,41.380207 9.8883106,40.311372 9.3316489,39.100929 9.1776786,38.765748 9.0645697,38.488102 8.9615281,38.233459 8.7874232,37.804711 8.6613785,37.49418 8.3901539,37.058326 8.0289172,36.477976 7.4091123,35.904233 7.1224907,35.74671 6.5397725,35.426925 5.7903519,34.90833 5.5309712,34.259286 5.3568664,33.823432 5.3946372,33.331171 5.6350676,32.908345 c 0.2783309,-0.490336 0.791818,-0.828182 1.4041459,-0.925302 0.1314669,-0.02132 0.2806997,-0.03238 0.4441456,-0.03238 0.7011557,0 1.5767692,0.216687 2.403471,0.594507 0.9557999,0.437038 1.8111499,1.483721 2.3595209,2.283182 0.641937,0.93685 1.304083,1.577103 1.674796,1.797399 0.248721,0.148048 0.887753,0.307663 1.700243,0.307663 0.298465,0 0.592527,-0.02213 0.87441,-0.06477 0.189503,-0.02961 0.402822,-0.08257 0.636146,-0.161927 0.126729,-0.504549 0.306904,-0.99087 0.536675,-1.450412 -6.6906,-1.352569 -9.9446846,-5.300038 -9.9446846,-12.045119 0,-2.657764 0.7704992,-5.00359 2.2924356,-6.976778 C 9.8920118,15.848292 9.8002597,15.448248 9.7434092,15.03845 9.5207445,13.418209 9.7710753,12.35537 9.972421,11.503796 l 0.032386,-0.134168 C 10.225103,10.425672 10.488,9.7510698 10.499843,9.7202758 l 0.134169,-0.3354219 0.131856,-0.3307956 0.356241,-0.037012 0.358555,-0.039325 c 0,0 0.234508,-0.023132 0.592193,-0.023132 0.496257,0 1.234075,0.048837 1.926942,0.2845299 l 0.231325,0.078652 c 0.876446,0.2960966 1.70548,0.5736683 2.86381,1.2653498 0.341103,0.203715 0.713481,0.438039 1.114988,0.698604 C 20.014928,10.832841 21.960486,10.60394 24,10.60394 c 2.019379,0 3.948338,0.226698 5.741499,0.670843 0.396769,-0.258196 0.767002,-0.489133 1.105736,-0.691663 1.15833,-0.6916814 1.987364,-0.9704375 2.86381,-1.2653497 l 0.231325,-0.078652 c 0.695235,-0.2356929 1.430684,-0.2845299 1.926942,-0.2845299 0.357684,0 0.594507,0.023132 0.594507,0.023132 l 0.358554,0.039325 0.358554,0.037012 0.129543,0.3331087 0.131855,0.3354219 c 0.01066,0.028425 0.274741,0.69964 0.495037,1.642411 l 0.03239,0.138796 c 0.201345,0.852759 0.451676,1.913229 0.229012,3.534654 -0.05448,0.397954 -0.142959,0.785803 -0.261398,1.161253 1.552731,1.982663 2.341015,4.340685 2.341015,7.011477 0,6.761663 -3.251993,10.712463 -9.933118,12.054373 0.499811,0.984225 0.761061,2.068587 0.761061,3.180726 l 0.01157,6.868054 c 0.0067,0.477427 0.731218,0.622903 1.522122,0.661591 C 41.430621,42.514656 47.687732,34.019186 47.687732,24 47.687732,10.917265 37.082735,0.31226766 24,0.31226766 Z"
       id="path2" />
  </g>
</svg>
