<?xml version="1.0" encoding="UTF-8" standalone="no"?>
<!-- Uploaded to: SVG Repo, www.svgrepo.com, Generator: SVG Repo Mixer Tools -->

<svg
   fill="#000000"
   width="48"
   height="48"
   viewBox="0 0 1.44 1.44"
   version="1.1"
   id="svg1"
   sodipodi:docname="instagram-logo.svg"
   inkscape:version="1.4.2 (f4327f4, 2025-05-13)"
   xmlns:inkscape="http://www.inkscape.org/namespaces/inkscape"
   xmlns:sodipodi="http://sodipodi.sourceforge.net/DTD/sodipodi-0.dtd"
   xmlns="http://www.w3.org/2000/svg"
   xmlns:svg="http://www.w3.org/2000/svg">
  <defs
     id="defs1" />
  <sodipodi:namedview
     id="namedview1"
     pagecolor="#ffffff"
     bordercolor="#000000"
     borderopacity="0.25"
     inkscape:showpageshadow="2"
     inkscape:pageopacity="0.0"
     inkscape:pagecheckerboard="0"
     inkscape:deskcolor="#d1d1d1"
     inkscape:zoom="8.07"
     inkscape:cx="21.685254"
     inkscape:cy="17.410161"
     inkscape:window-width="1920"
     inkscape:window-height="1009"
     inkscape:window-x="-8"
     inkscape:window-y="-8"
     inkscape:window-maximized="1"
     inkscape:current-layer="svg1" />
  <path
     fill-rule="evenodd"
     d="M 0.432,0 H 1.008 C 1.246587,0 1.44,0.193413 1.44,0.432 V 1.008 C 1.44,1.246587 1.246587,1.44 1.008,1.44 H 0.432 C 0.193413,1.44 0,1.246587 0,1.008 V 0.432 C 0,0.193413 0.193413,0 0.432,0 Z m 0,0.144 c -0.159058,0 -0.288,0.128942 -0.288,0.288 v 0.576 c 0,0.159058 0.128942,0.288 0.288,0.288 h 0.576 c 0.159058,0 0.288,-0.128942 0.288,-0.288 V 0.432 C 1.296,0.272942 1.167058,0.144 1.008,0.144 Z M 0.72,1.08 c -0.198823,0 -0.36,-0.161177 -0.36,-0.36 0,-0.198822 0.161177,-0.36 0.36,-0.36 0.198822,0 0.36,0.161178 0.36,0.36 0,0.198823 -0.161178,0.36 -0.36,0.36 z m 0,-0.144 c 0.119293,0 0.216,-0.09671 0.216,-0.216 0,-0.119293 -0.09671,-0.216 -0.216,-0.216 -0.119294,0 -0.216,0.09671 -0.216,0.216 0,0.119294 0.09671,0.216 0.216,0.216 z M 1.08,0.432 c -0.03976,0 -0.072,-0.03224 -0.072,-0.072 0,-0.03976 0.03224,-0.072 0.072,-0.072 0.03976,0 0.072,0.03224 0.072,0.072 0,0.03976 -0.03224,0.072 -0.072,0.072 z"
     id="path1"
     style="fill:#00deff;fill-opacity:1;stroke-width:0.072;stroke:none" />
</svg>
