<?xml version="1.0" encoding="UTF-8" standalone="no"?>
<!-- Created with Inkscape (http://www.inkscape.org/) -->

<svg
   width="48"
   height="48"
   viewBox="0 0 48.000001 48.000001"
   version="1.1"
   id="svg1"
   xml:space="preserve"
   inkscape:version="1.4.2 (f4327f4, 2025-05-13)"
   sodipodi:docname="linkedin-logo.svg"
   xmlns:inkscape="http://www.inkscape.org/namespaces/inkscape"
   xmlns:sodipodi="http://sodipodi.sourceforge.net/DTD/sodipodi-0.dtd"
   xmlns="http://www.w3.org/2000/svg"
   xmlns:svg="http://www.w3.org/2000/svg"><sodipodi:namedview
     id="namedview1"
     pagecolor="#ffffff"
     bordercolor="#000000"
     borderopacity="0.25"
     inkscape:showpageshadow="2"
     inkscape:pageopacity="0.0"
     inkscape:pagecheckerboard="0"
     inkscape:deskcolor="#d1d1d1"
     inkscape:document-units="mm"
     inkscape:zoom="2.8756734"
     inkscape:cx="50.770717"
     inkscape:cy="75.286714"
     inkscape:window-width="1920"
     inkscape:window-height="1009"
     inkscape:window-x="-8"
     inkscape:window-y="-8"
     inkscape:window-maximized="1"
     inkscape:current-layer="layer1" /><defs
     id="defs1" /><g
     inkscape:label="Camada 1"
     inkscape:groupmode="layer"
     id="layer1"><path
       style="fill:#00deff;fill-opacity:1;stroke-width:0.125655"
       d="M 43.658005,2.5e-6 H 4.3419855 c -2.39799,0 -4.34199,1.944 -4.34199,4.34198 V 43.657888 c 0,2.39811 1.944,4.342111 4.34199,4.342111 H 43.657885 c 2.398111,0 4.34212,-1.944001 4.34212,-4.342111 V 4.3419825 c 0,-2.39798 -1.94401,-4.34198 -4.342,-4.34198 z M 14.853235,41.446369 c 0,0.69788 -0.5657,1.26358 -1.26359,1.26358 H 8.2108855 c -0.69788,0 -1.26358,-0.5657 -1.26358,-1.26358 V 18.898813 c 0,-0.69789 0.5657,-1.263581 1.26358,-1.263581 h 5.3787595 c 0.69789,0 1.26359,0.565691 1.26359,1.263581 z m -3.95297,-25.936586 c -2.8220695,0 -5.1098595,-2.28779 -5.1098595,-5.10987 0,-2.8220705 2.28779,-5.1098605 5.1098595,-5.1098605 2.82208,0 5.10987,2.28779 5.10987,5.1098605 0,2.82208 -2.28766,5.10987 -5.10987,5.10987 z m 32.06224,26.038366 c 0,0.64159 -0.5202,1.1618 -1.161789,1.1618 h -5.771811 c -0.641599,0 -1.16181,-0.52021 -1.16181,-1.1618 V 30.972063 c 0,-1.57771 0.46279,-6.91363 -4.123099,-6.91363 -3.55715,0 -4.27866,3.65227 -4.42353,5.29131 v 12.198406 c 0,0.64159 -0.52009,1.1618 -1.16181,1.1618 h -5.582321 c -0.64159,0 -1.1618,-0.52021 -1.1618,-1.1618 V 18.797032 c 0,-0.641599 0.52021,-1.1618 1.1618,-1.1618 h 5.582321 c 0.641589,0 1.16181,0.520201 1.16181,1.1618 v 1.967111 c 1.31899,-1.97943 3.2792,-3.50726 7.45281,-3.50726 9.242139,0 9.189229,8.634469 9.189229,13.37868 z"
       id="path1" /></g></svg>
