<?xml version="1.0" encoding="UTF-8" standalone="no"?>
<!-- Created with Inkscape (http://www.inkscape.org/) -->

<svg
   width="210mm"
   height="297mm"
   viewBox="0 0 793.70081 1122.5197"
   version="1.1"
   id="svg1"
   xml:space="preserve"
   inkscape:version="1.4.2 (f4327f4, 2025-05-13)"
   sodipodi:docname="linkedin-logo.svg"
   xmlns:inkscape="http://www.inkscape.org/namespaces/inkscape"
   xmlns:sodipodi="http://sodipodi.sourceforge.net/DTD/sodipodi-0.dtd"
   xmlns="http://www.w3.org/2000/svg"
   xmlns:svg="http://www.w3.org/2000/svg"><sodipodi:namedview
     id="namedview1"
     pagecolor="#ffffff"
     bordercolor="#000000"
     borderopacity="0.25"
     inkscape:showpageshadow="2"
     inkscape:pageopacity="0.0"
     inkscape:pagecheckerboard="0"
     inkscape:deskcolor="#d1d1d1"
     inkscape:document-units="mm"
     inkscape:zoom="0.71891835"
     inkscape:cx="1065.4896"
     inkscape:cy="882.57589"
     inkscape:window-width="1920"
     inkscape:window-height="1009"
     inkscape:window-x="-8"
     inkscape:window-y="-8"
     inkscape:window-maximized="1"
     inkscape:current-layer="layer1" /><defs
     id="defs1" /><g
     inkscape:label="Camada 1"
     inkscape:groupmode="layer"
     id="layer1"><path
       style="fill:#00deff;fill-opacity:1;stroke-width:0.125655"
       d="m 405.80101,466.42876 h -39.31602 c -2.39799,0 -4.34199,1.944 -4.34199,4.34198 v 39.31591 c 0,2.39811 1.944,4.34211 4.34199,4.34211 h 39.3159 c 2.39811,0 4.34212,-1.944 4.34212,-4.34211 v -39.31591 c 0,-2.39798 -1.94401,-4.34198 -4.342,-4.34198 z m -28.80477,41.44637 c 0,0.69788 -0.5657,1.26358 -1.26359,1.26358 h -5.37876 c -0.69788,0 -1.26358,-0.5657 -1.26358,-1.26358 v -22.54756 c 0,-0.69789 0.5657,-1.26358 1.26358,-1.26358 h 5.37876 c 0.69789,0 1.26359,0.56569 1.26359,1.26358 z m -3.95297,-25.93659 c -2.82207,0 -5.10986,-2.28779 -5.10986,-5.10987 0,-2.82207 2.28779,-5.10986 5.10986,-5.10986 2.82208,0 5.10987,2.28779 5.10987,5.10986 0,2.82208 -2.28766,5.10987 -5.10987,5.10987 z m 32.06224,26.03837 c 0,0.64159 -0.5202,1.1618 -1.16179,1.1618 h -5.77181 c -0.6416,0 -1.16181,-0.52021 -1.16181,-1.1618 v -10.57609 c 0,-1.57771 0.46279,-6.91363 -4.1231,-6.91363 -3.55715,0 -4.27866,3.65227 -4.42353,5.29131 v 12.19841 c 0,0.64159 -0.52009,1.1618 -1.16181,1.1618 h -5.58232 c -0.64159,0 -1.1618,-0.52021 -1.1618,-1.1618 v -22.75112 c 0,-0.6416 0.52021,-1.1618 1.1618,-1.1618 h 5.58232 c 0.64159,0 1.16181,0.5202 1.16181,1.1618 v 1.96711 c 1.31899,-1.97943 3.2792,-3.50726 7.45281,-3.50726 9.24214,0 9.18923,8.63447 9.18923,13.37868 z"
       id="path1" /></g></svg>
